<svg xmlns="http://www.w3.org/2000/svg" viewBox="0 0 20.29 18.85">
  <title>Ресурс 1</title>
  <g id="Слой_2" data-name="Слой 2">
    <g id="Layer_1" data-name="Layer 1">
      <path d="M19.54,7.23H16.39L13,.41a.75.75,0,1,0-1.34.67l3.07,6.14H5.58L8.65,1.08A.75.75,0,1,0,7.31.41L3.9,7.23H.75a.75.75,0,0,0,0,1.5H.91l.86,3a.74.74,0,0,0-.32.59.74.74,0,0,0,.7.74L3.8,18.85H16.5l1.66-5.79a.75.75,0,0,0,.7-.74.74.74,0,0,0-.32-.6l.85-3h.16a.75.75,0,1,0,0-1.5ZM15.36,17.35H4.93L3.71,13.07H16.59ZM17,11.56H3.28L2.46,8.73H17.82Z" style="fill: #231f20"/>
    </g>
  </g>
</svg>
