<?xml version="1.0" standalone="no"?>
<!DOCTYPE svg PUBLIC "-//W3C//DTD SVG 20010904//EN"
 "http://www.w3.org/TR/2001/REC-SVG-20010904/DTD/svg10.dtd">
<svg version="1.0" xmlns="http://www.w3.org/2000/svg"
 width="15.000000pt" height="29.000000pt" viewBox="0 0 15.000000 29.000000"
 preserveAspectRatio="xMidYMid meet">

<g transform="translate(0.000000,29.000000) scale(0.100000,-0.100000)"
fill="#000000" stroke="none">
<path d="M42 268 c-7 -7 -12 -27 -12 -45 0 -19 -6 -36 -17 -41 -19 -11 -11
-42 12 -42 12 0 15 -13 15 -66 l0 -65 28 3 c26 3 27 6 30 66 2 46 7 62 17 62
10 0 15 10 15 30 0 24 -4 30 -17 28 -28 -5 -21 25 7 32 16 4 26 14 28 28 3 20
-1 22 -45 22 -27 0 -54 -5 -61 -12z m88 -7 c0 -5 -11 -12 -25 -15 -20 -5 -25
-13 -25 -36 0 -20 5 -30 15 -30 8 0 15 -7 15 -15 0 -8 -7 -15 -15 -15 -12 0
-15 -13 -15 -60 0 -33 -4 -60 -10 -60 -5 0 -7 21 -3 49 6 51 -3 70 -37 84 -12
4 -12 6 1 6 11 1 19 14 23 43 4 22 9 45 12 50 7 11 64 10 64 -1z"/>
</g>
</svg>
