<?xml version="1.0" standalone="no"?>
<!DOCTYPE svg PUBLIC "-//W3C//DTD SVG 20010904//EN"
 "http://www.w3.org/TR/2001/REC-SVG-20010904/DTD/svg10.dtd">
<svg version="1.0" xmlns="http://www.w3.org/2000/svg"
 width="22.000000pt" height="21.000000pt" viewBox="0 0 22.000000 21.000000"
 preserveAspectRatio="xMidYMid meet">

<g transform="translate(0.000000,21.000000) scale(0.100000,-0.100000)"
fill="#000000" stroke="none">
<path d="M6 201 c-9 -14 -4 -164 6 -184 8 -15 21 -17 106 -15 l97 3 3 93 c3
91 2 92 -23 102 -33 13 -182 13 -189 1z m154 -25 c0 -7 -16 -13 -35 -14 -24
-2 -35 2 -35 11 0 8 2 16 5 19 9 9 65 -4 65 -16z m-113 -8 c-3 -8 -6 -5 -6 6
-1 11 2 17 5 13 3 -3 4 -12 1 -19z m30 0 c-3 -8 -6 -5 -6 6 -1 11 2 17 5 13 3
-3 4 -12 1 -19z m-25 -68 c-2 -22 0 -40 5 -40 5 0 7 15 5 33 -3 17 -2 30 1 27
3 -3 7 -21 9 -40 4 -32 7 -35 40 -38 30 -3 40 1 54 22 9 15 14 37 12 51 -4 17
-1 25 8 25 10 0 14 -16 14 -61 l0 -60 -62 2 c-35 1 -69 7 -77 13 -10 8 -13 8
-8 0 3 -6 1 -11 -6 -11 -7 0 -14 7 -15 16 -1 9 -5 35 -8 59 -5 37 -4 42 13 42
16 0 18 -6 15 -40z m88 15 c0 -8 -4 -15 -9 -15 -13 0 -22 16 -14 24 11 11 23
6 23 -9z"/>
</g>
</svg>
