<?xml version="1.0" standalone="no"?>
<!DOCTYPE svg PUBLIC "-//W3C//DTD SVG 20010904//EN"
 "http://www.w3.org/TR/2001/REC-SVG-20010904/DTD/svg10.dtd">
<svg version="1.0" xmlns="http://www.w3.org/2000/svg"
 width="86.000000pt" height="35.000000pt" viewBox="0 0 86.000000 35.000000"
 preserveAspectRatio="xMidYMid meet">

<g transform="translate(0.000000,35.000000) scale(0.100000,-0.100000)"
fill="#000000" stroke="none">
<path d="M190 320 c0 -19 5 -30 14 -30 20 0 26 12 19 38 -8 33 -33 27 -33 -8z"/>
<path d="M536 311 c-3 -4 -3 -61 1 -125 5 -99 9 -116 22 -114 9 2 18 18 21 38
13 75 31 78 56 10 17 -47 35 -62 49 -40 3 5 -7 40 -23 78 l-28 68 23 43 c13
25 21 46 18 49 -12 12 -38 -13 -62 -62 -15 -30 -30 -53 -35 -50 -4 3 -8 30 -8
60 0 40 -4 54 -14 54 -8 0 -17 -4 -20 -9z"/>
<path d="M266 297 c-13 -10 -17 -24 -14 -57 3 -44 4 -45 43 -50 39 -5 40 -6
46 -50 7 -52 5 -60 -22 -60 -14 0 -19 7 -19 26 0 19 -5 25 -17 22 -10 -2 -19
-13 -21 -24 -4 -30 22 -47 60 -40 55 10 62 20 60 73 -3 54 -20 73 -64 73 -26
0 -28 3 -28 40 0 36 3 40 24 40 13 0 26 -5 28 -12 2 -6 12 -9 21 -5 10 4 14
12 11 22 -8 19 -82 21 -108 2z"/>
<path d="M398 300 c-1 -5 -2 -59 0 -120 3 -98 5 -111 20 -108 13 3 17 14 17
48 0 36 4 45 19 48 24 5 36 -14 36 -60 0 -26 5 -38 14 -38 24 0 25 29 7 223
-1 4 -8 7 -15 7 -11 0 -16 -15 -18 -52 -2 -40 -7 -54 -19 -56 -14 -2 -18 9
-24 57 -5 40 -11 61 -20 61 -7 0 -15 -4 -17 -10z"/>
<path d="M760 300 c-51 -12 -60 -32 -60 -130 0 -91 3 -102 26 -93 9 3 14 21
14 53 l0 49 35 -2 c35 -2 35 -2 35 -49 0 -34 4 -48 14 -48 19 0 27 24 19 61
-4 21 -1 34 8 41 11 7 11 11 2 15 -8 3 -13 22 -13 47 0 41 -14 67 -34 65 -6
-1 -27 -5 -46 -9z m40 -55 c0 -43 -1 -45 -30 -45 -28 0 -30 2 -30 39 0 39 8
49 43 50 14 1 17 -8 17 -44z"/>
<path d="M4 285 c-3 -8 -4 -58 -2 -112 3 -78 7 -98 18 -98 11 0 16 16 20 55
l5 55 15 -37 c8 -22 21 -38 30 -38 10 0 20 14 27 38 10 36 10 36 12 -25 1 -61
9 -76 27 -50 5 6 8 60 6 120 -3 94 -5 107 -21 107 -12 0 -21 -14 -30 -50 -7
-27 -16 -52 -21 -55 -4 -3 -18 20 -30 50 -22 54 -45 70 -56 40z"/>
<path d="M201 271 c-10 -7 -12 -29 -6 -105 6 -82 10 -96 24 -94 14 3 16 17 13
98 -4 99 -8 115 -31 101z"/>
<path d="M60 17 c-28 -10 23 -13 275 -15 320 -3 497 4 460 19 -33 13 -694 9
-735 -4z"/>
</g>
</svg>
