<?xml version="1.0" standalone="no"?>
<!DOCTYPE svg PUBLIC "-//W3C//DTD SVG 20010904//EN"
 "http://www.w3.org/TR/2001/REC-SVG-20010904/DTD/svg10.dtd">
<svg version="1.0" xmlns="http://www.w3.org/2000/svg"
 width="113.000000pt" height="46.000000pt" viewBox="0 0 113.000000 46.000000"
 preserveAspectRatio="xMidYMid meet">

<g transform="translate(0.000000,46.000000) scale(0.100000,-0.100000)"
fill="#000000" stroke="none">
<path d="M835 450 c-27 -4 -201 -6 -385 -3 -389 6 -411 4 -431 -55 -14 -40
-17 -142 -8 -265 9 -114 -1 -110 282 -106 366 6 598 2 610 -10 17 -17 76 -12
147 12 61 21 65 24 74 61 13 58 -10 336 -29 356 -18 17 -176 24 -260 10z
m-502 -55 c3 -18 -1 -29 -13 -35 -21 -11 -30 -4 -30 25 0 42 35 50 43 10z
m385 -41 c1 -16 5 -49 8 -74 l6 -45 30 60 c34 67 55 95 73 95 8 0 2 -21 -15
-57 l-27 -57 30 -73 c28 -69 30 -109 6 -101 -6 2 -23 32 -36 66 l-25 62 -18
-23 c-10 -13 -20 -39 -22 -58 -2 -21 -9 -35 -19 -37 -14 -3 -17 15 -24 127 -4
72 -4 135 0 141 12 19 30 5 33 -26z m-234 20 c23 -9 20 -44 -3 -44 -10 0 -21
7 -25 15 -6 16 -41 21 -50 7 -2 -4 -2 -27 1 -50 5 -40 7 -42 39 -42 48 0 64
-22 64 -86 0 -49 -2 -55 -26 -64 -14 -6 -43 -10 -65 -10 -38 0 -39 1 -39 34 0
20 6 36 14 39 19 7 26 -1 26 -30 0 -18 5 -23 25 -23 23 0 25 3 25 48 0 56 -12
72 -57 72 -22 0 -36 6 -43 19 -12 23 -13 71 -2 88 16 25 82 40 116 27z m86
-70 c0 -62 1 -65 23 -62 19 3 22 10 25 61 2 47 6 57 21 57 16 0 19 -13 26
-121 5 -97 4 -123 -7 -130 -24 -15 -28 -10 -28 35 0 60 -8 76 -37 76 -22 0
-24 -4 -23 -42 3 -64 2 -68 -20 -68 -19 0 -20 7 -20 129 0 94 3 131 13 134 22
8 27 -4 27 -69z m-305 -58 c7 -126 5 -146 -20 -146 -9 0 -16 17 -20 48 -8 60
-13 74 -14 40 -1 -34 -38 -59 -47 -31 -3 10 -12 32 -19 48 -13 29 -14 28 -14
-32 -1 -55 -3 -63 -20 -63 -17 0 -19 11 -23 113 -6 125 -4 137 22 137 12 0 24
-18 40 -60 12 -33 26 -62 30 -65 4 -3 15 23 25 58 20 74 22 77 40 77 10 0 15
-31 20 -124z m753 69 c2 -30 9 -55 18 -62 10 -7 12 -13 5 -18 -6 -3 -11 -28
-11 -55 0 -38 -4 -52 -19 -59 -16 -9 -19 -5 -24 41 -4 28 -8 52 -9 53 -2 2
-17 6 -35 10 l-32 6 -3 -58 c-2 -44 -7 -59 -19 -61 -14 -2 -17 12 -21 90 -3
51 -2 103 3 116 11 29 63 52 109 49 35 -2 35 -3 38 -52z m-673 -92 c6 -90 5
-104 -9 -109 -9 -4 -20 -3 -24 0 -3 4 -8 52 -10 108 -3 77 -1 102 9 109 22 13
27 -1 34 -108z"/>
<path d="M916 334 c-3 -9 -6 -31 -6 -50 0 -32 2 -34 35 -34 l35 0 0 50 c0 48
-1 50 -29 50 -17 0 -31 -6 -35 -16z"/>
</g>
</svg>
