<?xml version="1.0" standalone="no"?>
<!DOCTYPE svg PUBLIC "-//W3C//DTD SVG 20010904//EN"
 "http://www.w3.org/TR/2001/REC-SVG-20010904/DTD/svg10.dtd">
<svg version="1.0" xmlns="http://www.w3.org/2000/svg"
 width="25.000000pt" height="24.000000pt" viewBox="0 0 25.000000 24.000000"
 preserveAspectRatio="xMidYMid meet">

<g transform="translate(0.000000,24.000000) scale(0.100000,-0.100000)"
fill="#000000" stroke="none">
<path d="M125 230 c3 -5 15 -10 26 -10 27 0 79 -53 79 -79 0 -12 5 -21 10 -21
31 0 -8 78 -50 104 -31 18 -75 22 -65 6z"/>
<path d="M12 208 c-32 -32 3 -128 64 -174 43 -34 110 -39 128 -11 15 25 -18
50 -59 44 -33 -5 -52 5 -77 42 -13 18 -14 28 -6 41 15 24 2 70 -20 70 -10 0
-23 -5 -30 -12z"/>
<path d="M126 192 c-3 -3 8 -13 24 -23 17 -11 30 -26 30 -34 0 -8 7 -15 15
-15 29 0 -10 64 -45 73 -10 3 -21 2 -24 -1z"/>
<path d="M130 135 c7 -8 17 -15 22 -15 6 0 5 7 -2 15 -7 8 -17 15 -22 15 -6 0
-5 -7 2 -15z"/>
</g>
</svg>
