<?xml version="1.0" standalone="no"?>
<!DOCTYPE svg PUBLIC "-//W3C//DTD SVG 20010904//EN"
 "http://www.w3.org/TR/2001/REC-SVG-20010904/DTD/svg10.dtd">
<svg version="1.0" xmlns="http://www.w3.org/2000/svg"
 width="24.000000pt" height="20.000000pt" viewBox="0 0 24.000000 20.000000"
 preserveAspectRatio="xMidYMid meet">

<g transform="translate(0.000000,20.000000) scale(0.100000,-0.100000)"
fill="#000000" stroke="none">
<path d="M206 192 c-4 -7 -20 -12 -37 -12 -17 0 -36 -8 -46 -19 -15 -18 -19
-18 -44 -6 -15 8 -29 20 -32 27 -7 21 -16 4 -17 -32 -1 -56 4 -80 19 -90 12
-7 9 -10 -12 -15 -15 -4 -27 -11 -27 -16 0 -14 46 -29 87 -29 47 0 113 63 113
108 0 17 4 32 10 34 6 2 6 15 2 33 -5 19 -11 25 -16 17z m-16 -37 c26 -31 -17
-117 -68 -136 -14 -5 -39 -7 -55 -3 -28 6 -28 6 -8 21 25 17 27 33 5 33 -13 0
-14 3 -5 14 9 10 8 15 -2 19 -8 3 -14 17 -15 31 l0 25 37 -20 c27 -14 37 -16
40 -7 4 16 31 38 47 38 6 0 17 -7 24 -15z"/>
<path d="M150 150 c0 -5 5 -10 11 -10 5 0 7 5 4 10 -3 6 -8 10 -11 10 -2 0 -4
-4 -4 -10z"/>
</g>
</svg>
